<svg width="32" height="32" xmlns="http://www.w3.org/2000/svg" fill="none" viewBox="0 0 559 550">
  <rect width="559" height="550" fill="color(display-p3 .9333 .9333 .9333)" rx="12"/>
  <g clip-path="url(#a)">
    <path fill="color(display-p3 .9396 .8274 .1985)" fill-opacity=".2" d="M506.4 181.8a117 117 0 0 0-84.2-91 734 734 0 0 0-285.4 0 113 113 0 0 0-84.2 91 623 623 0 0 0 0 186.5 117 117 0 0 0 84.2 91.2 680 680 0 0 0 285.4 0 113 113 0 0 0 84.2-91v-2.2a594 594 0 0 0 0-182z"/>
    <path fill="color(display-p3 .077 .306 .3002)" d="M516.8 176a123 123 0 0 0-88-95 765 765 0 0 0-298.3 0 117 117 0 0 0-88.3 95 655 655 0 0 0 0 195.7 123 123 0 0 0 88 95.2 706 706 0 0 0 298.3 0 117 117 0 0 0 88-95.2v-2.4a623 623 0 0 0 0-190.7zm-49 185.9a64 64 0 0 1-48.8 53.8 657 657 0 0 1-276.4 0A62 62 0 0 1 91 361.9a561 561 0 0 1 0-180.7 65 65 0 0 1 49-54 666 666 0 0 1 276.3 0A62 62 0 0 1 468 181v2.5a532 532 0 0 1 0 176"/>
    <path fill="color(display-p3 .1825 .5105 .4393)" fill-opacity=".8" d="M396 330.8a25 25 0 0 0-17.4-7h-73.2a24.4 24.4 0 0 0 0 49h73.4a24.5 24.5 0 0 0 17-42M273.5 292q14.7-17 0-34.2l-73.3-73.3a24.4 24.4 0 1 0-34.2 34.2l56.1 56.3-56.1 56.2a24.5 24.5 0 1 0 34.2 34.2z"/>
  </g>
  <defs>
    <clipPath id="a">
      <path fill="#fff" d="M35 30h489v489H35z"/>
    </clipPath>
  </defs>
</svg>