<svg width="32" height="32" xmlns="http://www.w3.org/2000/svg" fill="none" viewBox="0 0 559 550">
  <rect width="559" height="550" fill="color(display-p3 .0667 .0667 .0667)" rx="12"/>
  <g clip-path="url(#a)">
    <path fill="color(display-p3 .2824 .2392 .5451)" fill-opacity=".6" d="M507.3 182.1A117 117 0 0 0 423 91a735 735 0 0 0-286 0 113 113 0 0 0-84.3 91.2c-9.4 62-9.4 125 0 186.9a117 117 0 0 0 84.3 91.3 682 682 0 0 0 286 0 113 113 0 0 0 84.3-91.1V367q14.1-91.4 0-182.3z"/>
    <path fill="color(display-p3 .4157 .3529 .8039)" d="M516.8 176.4A124 124 0 0 0 428.6 81a767 767 0 0 0-299 0 117 117 0 0 0-88.4 95.3 657 657 0 0 0 0 196 124 124 0 0 0 88.2 95.4 707 707 0 0 0 299 0 117 117 0 0 0 88.1-95.4V370a624 624 0 0 0 0-191zm-49 186.2a64 64 0 0 1-49 53.9 658 658 0 0 1-277 0 62 62 0 0 1-51.6-54c-9.7-59.9-9.7-121 0-181a65 65 0 0 1 49-54.1 667 667 0 0 1 277 0 62 62 0 0 1 51.6 53.9v2.5c9.8 58.4 9.8 118 0 176.4"/>
    <path fill="color(display-p3 .902 .902 .9804)" fill-opacity=".7" d="M395.7 331.5a25 25 0 0 0-17.4-7H305a24.5 24.5 0 0 0 0 49h73.5a24.5 24.5 0 0 0 17-42m-122.5-39q14.7-17 0-34.3l-73.5-73.5a24.5 24.5 0 1 0-34.3 34.3l56.3 56.4-56.3 56.3a24.5 24.5 0 1 0 34.3 34.3z"/>
  </g>
  <defs>
    <clipPath id="a">
      <path fill="#fff" d="M34 30h490v490H34z"/>
    </clipPath>
  </defs>
</svg>